<?xml version="1.0" encoding="utf-8"?>
<!-- Generator: Adobe Illustrator 22.0.1, SVG Export Plug-In . SVG Version: 6.00 Build 0)  -->
<svg version="1.1" id="Слой_1" xmlns="http://www.w3.org/2000/svg" xmlns:xlink="http://www.w3.org/1999/xlink" x="0px" y="0px"
	 viewBox="0 0 289.3 108.7" style="enable-background:new 0 0 289.3 108.7;" xml:space="preserve">
<style type="text/css">
	.st0{fill:#004E99;}
	.st1{fill:#F07122;}
	.st2{fill:#FFFFFF;}
</style>
<g>
	<g>
		<path class="st0" d="M205.7,28c-22.9-8.4-34.7-11.2-56.2-11.2c-32.9,0-41.8,9.8-53.8,16.5c-12,6.7-0.2,4.5-38,8.9
			c-15.8,1.8-24.9,3.7-30.2,7.2C22,52.9,20,60.9,22.8,66.8c0.2,0.4,0.8,0.3,0.8-0.2c-0.1-6,3.7-20.1,43.6-20.1c34,0,14-2.2,43.9-17
			c31.1-15.4,69.4-4.6,80.2-0.8c11.3,4,28.4,9.7,15.3,20.6c-9.9,8.2-41.4,10.9-59.3,13.1c-0.8,0.1-0.7,1.3,0.1,1.2
			c24.1-0.8,76.2-4.2,98.3-25.6C249,34.8,231.2,37.3,205.7,28z"/>
		<path class="st1" d="M125.3,45.1c-2.6,0.4-17.1,2.3-12.4-1.7c10.6-8.9,31-18.1,62.1-9.6c8.3,2.3,28.1,8.2,10.3,15.2
			c-18.5,7.2-66.3,9.9-78.9,11.4c-0.6,0.1-0.5,0.9,0.1,0.8c17.1-0.6,57.2,0.2,86.2-11.1c15.1-5.9,8.6-13-7.2-18.2
			c-10.1-3.3-17.3-6.5-39.1-5.3c-13.8,0.7-30.2,9.8-36.4,17.4c-4,4.9,6.3,3.4,15.1,1.9C126.7,45.5,128.8,44.5,125.3,45.1z"/>
		<path class="st1" d="M242.5,45.2c-4,3.4-8.7,6.3-13.9,8.8v3h13.9c1.4,0,2.5-1.1,2.5-2.5v-6.9C245,46.3,243.9,45.2,242.5,45.2z"/>
		<path class="st0" d="M42.4,55.8h-5.6c-2.6,0-5.1,1.4-6.4,3.6c-1.1,1.8-1.6,3.5-1.8,5.1h9c3.7,0,6.8-3,6.8-6.8
			C44.3,56.6,43.5,55.8,42.4,55.8z"/>
		<path class="st0" d="M110.6,37.8h-8c-1.4,0-2.7,0.5-3.8,1.4l-5.4,4.6c-0.8,0.7-0.3,1.9,0.7,1.9h4.8c5,0,9.7-2.5,12.4-6.7
			C111.6,38.5,111.2,37.8,110.6,37.8z"/>
	</g>
	<path class="st0" d="M201.4,88.4h66.2c1.3,0,2.3-1,2.3-2.3V69.7c0-1.3-1-2.3-2.3-2.3h-31.5C216.9,67.4,201.4,69.2,201.4,88.4
		L201.4,88.4z"/>
	<path class="st0" d="M246.1,62.1c-0.1-0.6-0.3-1.2-0.4-1.7c-0.1-0.3-0.2-0.6-0.3-0.9c-0.1-0.2-0.1-0.4-0.2-0.6
		c-0.1-0.1-0.1-0.2-0.2-0.2c-0.1,0-0.1,0.3-0.1,0.8c-0.1,0.9,0.1,1.8-0.2,2.6c-0.1,0.2-0.5,0.3-0.7,0.3l-0.9,0l-1.7,0
		c-2.3-0.1-4.6,0-6.9,0c-4.6,0.1-9.2,0.2-13.8,0.7c-2.3,0.2-4.6,0.5-6.9,0.9c-2.3,0.5-4.5,1.5-6.5,2.7c-2,1.2-3.8,2.7-5.3,4.6
		c-1.5,1.8-2.7,4-3.1,6.4c-0.1,0.3,0.1,0.6,0.4,0.7c0.3,0.1,0.7,0,0.8-0.3l0,0c0.8-2.1,2.2-4.1,3.8-5.7c1.7-1.6,3.7-2.9,5.8-3.9
		c1.1-0.5,2.1-1,3.2-1.3c1.1-0.3,2.3-0.5,3.4-0.7c2.3-0.4,4.7-0.7,7.1-0.8c4.8-0.3,9.5-0.3,14.3-0.4c2.4,0,4.8-0.1,7.2-0.2
		c0.3,0,0.6,0,0.9-0.2c0.3-0.1,0.5-0.5,0.4-0.8C246.3,63.2,246.2,62.7,246.1,62.1z M245.3,59.1C245.3,59.1,245.2,59.1,245.3,59.1
		C245.2,59.1,245.3,59.1,245.3,59.1z M244.8,61.9C244.8,61.9,244.8,61.8,244.8,61.9C244.8,61.8,244.8,61.9,244.8,61.9z"/>
	<g>
		<polygon class="st0" points="39.5,76.7 28.4,76.7 28.4,70 24.7,70 24.7,88.2 28.4,88.2 28.4,80.2 39.5,80.2 39.5,88.2 43.1,88.2 
			43.1,70 39.5,70 		"/>
		<polygon class="st0" points="51.7,80.3 60.5,80.3 60.5,76.8 51.7,76.8 51.7,73.5 65.1,73.5 65.1,70 48,70 48,88.2 65.9,88.2 
			65.9,84.7 51.7,84.7 		"/>
		<polygon class="st0" points="72.4,70 68.7,70 68.7,88.2 85.1,88.2 85.1,84.7 72.4,84.7 		"/>
		<path class="st0" d="M100.2,70h-13v18.2h3.7v-7.5h9.6c1.7,0,3.1-0.5,4.2-1.5c1.1-1,1.6-2.3,1.6-3.9c0-1.7-0.6-3-1.7-3.9
			C103.6,70.4,102.1,70,100.2,70z M102.6,75.3c0,0.6-0.2,1-0.6,1.3c-0.4,0.3-1,0.5-1.8,0.5h-9.3v-3.6h9.4c0.7,0,1.3,0.2,1.7,0.5
			C102.4,74.3,102.6,74.7,102.6,75.3z"/>
		<path class="st0" d="M129.2,66h-3.5l-17.2,13.7v3.3h16.9v5.1h3.8v-5.1h3.5v-3.6h-3.5V66z M114.7,79.5l10.7-8.5v8.5H114.7z"/>
		<path class="st0" d="M152.8,81.7c-0.8,1.2-1.8,2.1-2.9,2.7c-1.1,0.6-2.4,0.9-3.8,0.9c-2.1,0-3.8-0.6-5.1-1.8c-1.3-1.2-2-2.6-2-4.3
			s0.7-3.2,2-4.3c1.3-1.2,3.1-1.8,5.1-1.8c1.3,0,2.6,0.3,3.7,0.7c1.1,0.5,2,1.2,2.6,2.1l0.3,0.4l3-2.1l-0.3-0.4
			c-1-1.4-2.3-2.4-3.9-3.1c-1.6-0.7-3.4-1.1-5.3-1.1c-3.1,0-5.8,0.9-7.8,2.7c-2.1,1.8-3.1,4.1-3.1,6.9c0,2.8,1,5.1,3.1,6.9
			c2,1.8,4.7,2.7,7.8,2.7c2.1,0,4-0.4,5.7-1.3c1.7-0.8,3-2.1,4-3.7l0.3-0.4l-3-2L152.8,81.7z"/>
		<path class="st0" d="M165.8,70l-9.2,18.2h4l2.2-4.4h8.5l2.2,4.4h4L168.1,70H165.8z M169.5,80.5h-5.1l2.6-5L169.5,80.5z"/>
		<path class="st0" d="M193.2,80.5c1.1-0.3,1.9-0.8,2.6-1.6c0.9-1,1.3-2.2,1.3-3.5c0-1.6-0.6-3-1.7-3.9c-1.1-0.9-2.6-1.4-4.5-1.4
			h-12.3v18.2h3.7v-7.5h6.7l4.9,7.5h4.1L193.2,80.5z M182.4,73.5h8.6c0.8,0,1.4,0.2,1.8,0.5c0.4,0.3,0.5,0.7,0.5,1.3
			c0,0.6-0.2,1-0.6,1.3c-0.4,0.3-1,0.5-1.8,0.5h-8.6V73.5z"/>
	</g>
	<g>
		<g>
			<path class="st2" d="M216,78l-1.8,1c-0.3-0.4-0.7-0.6-1-0.7c-0.3-0.1-0.7-0.2-1.2-0.2c-0.8,0-1.5,0.2-2,0.7
				c-0.5,0.5-0.7,1.1-0.7,1.8c0,0.7,0.2,1.3,0.7,1.8s1.1,0.7,1.9,0.7c1,0,1.7-0.3,2.3-1l1.7,1.2c-0.9,1.2-2.2,1.8-3.9,1.8
				c-1.5,0-2.7-0.4-3.5-1.3c-0.9-0.9-1.3-1.9-1.3-3.1c0-0.8,0.2-1.6,0.6-2.3c0.4-0.7,1-1.2,1.7-1.6c0.7-0.4,1.6-0.6,2.5-0.6
				c0.9,0,1.6,0.2,2.3,0.5C215.1,76.9,215.6,77.4,216,78z"/>
			<path class="st2" d="M222,76c0.8,0,1.6,0.2,2.3,0.6c0.7,0.4,1.3,1,1.7,1.7c0.4,0.7,0.6,1.4,0.6,2.2c0,0.8-0.2,1.6-0.6,2.3
				c-0.4,0.7-1,1.3-1.6,1.7s-1.5,0.6-2.3,0.6c-1.2,0-2.3-0.4-3.2-1.3c-0.9-0.9-1.3-1.9-1.3-3.2c0-1.3,0.5-2.5,1.5-3.4
				C219.9,76.4,220.9,76,222,76z M222.1,78.1c-0.7,0-1.2,0.2-1.7,0.7c-0.4,0.5-0.7,1.1-0.7,1.8c0,0.7,0.2,1.4,0.7,1.8
				c0.4,0.5,1,0.7,1.7,0.7s1.2-0.2,1.7-0.7c0.4-0.5,0.7-1.1,0.7-1.8s-0.2-1.3-0.7-1.8C223.3,78.3,222.7,78.1,222.1,78.1z"/>
			<path class="st2" d="M228.3,76.3h2.2v1c0.4-0.4,0.8-0.7,1.2-0.9s0.9-0.3,1.5-0.3c0.5,0,1,0.1,1.5,0.4c0.4,0.3,0.8,0.6,1,1.2
				c0.3-0.5,0.8-0.9,1.3-1.2c0.5-0.3,1-0.4,1.6-0.4c0.6,0,1.1,0.1,1.6,0.4c0.5,0.3,0.8,0.7,1,1.1c0.2,0.5,0.3,1.2,0.3,2.2v5h-2.2
				v-4.4c0-1-0.1-1.6-0.4-2c-0.2-0.3-0.6-0.5-1.1-0.5c-0.4,0-0.7,0.1-1,0.3s-0.5,0.5-0.7,0.9c-0.1,0.4-0.2,1-0.2,1.8v3.9h-2.2v-4.2
				c0-0.8-0.1-1.3-0.2-1.7s-0.3-0.6-0.5-0.8s-0.5-0.3-0.8-0.3c-0.4,0-0.7,0.1-1,0.3s-0.5,0.5-0.7,0.9c-0.1,0.4-0.2,1-0.2,1.8v3.8
				h-2.2V76.3z"/>
			<path class="st2" d="M244.7,82.6c0.3,0,0.6,0.1,0.9,0.4c0.2,0.2,0.4,0.5,0.4,0.9c0,0.3-0.1,0.6-0.4,0.9s-0.5,0.4-0.9,0.4
				s-0.6-0.1-0.9-0.4s-0.4-0.5-0.4-0.9c0-0.3,0.1-0.6,0.4-0.9C244.1,82.7,244.4,82.6,244.7,82.6z"/>
			<path class="st2" d="M248,76.3h2.2v4.1c0,0.8,0.1,1.4,0.2,1.7c0.1,0.3,0.3,0.6,0.5,0.7c0.2,0.2,0.5,0.3,0.9,0.3
				c0.4,0,0.7-0.1,0.9-0.3c0.3-0.2,0.4-0.4,0.6-0.8c0.1-0.2,0.1-0.8,0.1-1.6v-4.2h2.2v3.6c0,1.5-0.1,2.5-0.4,3.1
				c-0.3,0.7-0.7,1.2-1.3,1.6c-0.6,0.4-1.3,0.5-2.1,0.5c-0.9,0-1.7-0.2-2.3-0.6c-0.6-0.4-1-1-1.2-1.8c-0.2-0.5-0.3-1.5-0.3-2.8V76.3
				z"/>
			<path class="st2" d="M264.1,76.3h2.2v8.6h-2.2v-0.9c-0.4,0.4-0.8,0.7-1.3,0.9s-0.9,0.3-1.4,0.3c-1.1,0-2.1-0.4-2.9-1.3
				c-0.8-0.9-1.2-1.9-1.2-3.2c0-1.3,0.4-2.4,1.2-3.3c0.8-0.8,1.7-1.3,2.9-1.3c0.5,0,1,0.1,1.5,0.3s0.9,0.5,1.3,0.9V76.3z M261.8,78
				c-0.7,0-1.2,0.2-1.7,0.7s-0.7,1.1-0.7,1.8c0,0.7,0.2,1.4,0.7,1.8c0.4,0.5,1,0.7,1.7,0.7c0.7,0,1.2-0.2,1.7-0.7
				c0.4-0.5,0.7-1.1,0.7-1.9c0-0.7-0.2-1.4-0.7-1.8C263.1,78.3,262.5,78,261.8,78z"/>
		</g>
	</g>
</g>
<path class="st2" d="M52.4,50.7c3.2,0.5,6.3,1.1,9.5,1.5c3.2,0.4,6.3,0.8,9.5,1.1c1.6,0.1,3.2,0.2,4.8,0.3l4.8,0.3
	c3.2,0.2,6.4,0.5,9.7,0.8c-3.2,0.5-6.5,0.6-9.7,0.7c-3.3,0.1-6.5,0-9.8-0.2c-3.3-0.3-6.5-0.8-9.7-1.5C58.3,52.9,55.3,52,52.4,50.7z"
	/>
<path class="st2" d="M62.2,55.8c2.4,0.2,4.7,0.5,7,0.8c2.3,0.3,4.5,0.5,6.8,0.7c2.3,0.2,4.6,0.4,6.9,0.6c2.3,0.2,4.6,0.5,7,0.9
	c-2.4,0.4-4.7,0.6-7.1,0.7c-2.4,0.1-4.8,0.1-7.1-0.1c-2.4-0.2-4.8-0.6-7-1.1C66.4,57.5,64.2,56.8,62.2,55.8z"/>
<path class="st2" d="M66,59.7c1.9,0.3,3.7,0.7,5.6,1.1c1.8,0.4,3.7,0.7,5.5,0.9c1.8,0.3,3.7,0.5,5.6,0.8c1.9,0.3,3.7,0.6,5.6,1.1
	c-1.9,0.3-3.9,0.3-5.8,0.2c-1.9-0.1-3.9-0.2-5.8-0.5c-1.9-0.3-3.8-0.8-5.6-1.4C69.2,61.4,67.5,60.7,66,59.7z"/>
</svg>
